<svg width="100" height="100" viewBox="0 0 100 100" xmlns="http://www.w3.org/2000/svg">
  <rect width="100" height="100" rx="20" fill="#0A0A0B"/>
  <g transform="translate(18.013 78.846) scale(0.0824176 -0.0824176)" fill="#C9A24B">
    <path d="M721.5352172851562 292 731.3914184570312 119.82208251953125Q709.0341186523438 82.89324951171875 671.9625854492188 52.732391357421875Q634.8910522460938 22.571533203125 580.1768188476562 4.2857666015625Q525.4625854492188 -14 450.39141845703125 -14Q328.17791748046875 -13 236.55337524414062 30.482208251953125Q144.9288330078125 73.96441650390625 94.87545776367188 155.16085815429688Q44.82208251953125 236.3572998046875 44.82208251953125 351Q44.82208251953125 463.03558349609375 94.0718994140625 544.5355834960938Q143.32171630859375 626.0355834960938 234.83914184570312 670.0177917480469Q326.3565673828125 714 453.3558349609375 714Q533.427001953125 714 596.5697021484375 697.8391418457031Q659.71240234375 681.6782836914062 702.4981689453125 659.3565673828125L704.28466796875 488.000732421875H695.28466796875Q668.427734375 586.9288330078125 607.1060180664062 629.3932495117188Q545.7843017578125 671.857666015625 463.67681884765625 671.857666015625Q384.17645263671875 671.857666015625 326.96185302734375 633.0896911621094Q269.74725341796875 594.3217163085938 238.80062866210938 523.1608581542969Q207.85400390625 452 207.85400390625 353.2142333984375Q207.85400390625 254.428466796875 237.58639526367188 182.16049194335938Q267.31878662109375 109.89251708984375 321.7120361328125 70.01742553710938Q376.10528564453125 30.142333984375 450.39141845703125 28.142333984375Q527.4625854492188 28.142333984375 580.3736267089844 53.124542236328125Q633.28466796875 78.10675048828125 665.7850341796875 136.17828369140625Q698.285400390625 194.24981689453125 713.5352172851562 292Z"/>
  </g>
</svg>
